<svg xmlns="http://www.w3.org/2000/svg" xmlns:xlink="http://www.w3.org/1999/xlink" style="width: 0; height: 0; visibility: hidden; position: absolute;" aria-hidden="true"><symbol  viewBox='0 0 9 16' id='arrow-right'>
    <path fill-rule="evenodd" clip-rule="evenodd" d="M8.036 7.323.943.127a.42.42 0 0 0-.602 0 .435.435 0 0 0 0 .611l6.79 6.887-6.79 6.888a.434.434 0 0 0 .3.738c.107 0 .217-.04.299-.128l7.092-7.194a.433.433 0 0 0 .004-.606Z" fill="#000"></path>
  </symbol><symbol  viewBox='0 0 16 11' id='arrow'>
    <path d="M15.027 3.5a.577.577 0 0 0 0-.813l-1.482-1.473a.566.566 0 0 0-.804 0L8 5.955l-4.741-4.74a.566.566 0 0 0-.804 0L.973 2.686a.577.577 0 0 0 0 .813l6.625 6.616c.223.223.58.223.804 0L15.027 3.5Z" fill="#222"></path>
  </symbol><symbol  viewBox='0 0 8 8' id='bullet'>
    <circle cx="4" cy="4" r="4" fill="var(--fill-color, #CCCCCC)"></circle>
  </symbol><symbol  viewBox='0 0 19 15' id='enter'>
    <path d="M15.459 14a3.376 3.376 0 0 0 3.375-3.375v-6.75A3.376 3.376 0 0 0 15.459.5h-2.953a.428.428 0 0 0-.422.422v1.406c0 .246.176.422.422.422h2.953c.598 0 1.125.527 1.125 1.125v6.75c0 .633-.527 1.125-1.125 1.125h-2.953a.427.427 0 0 0-.422.422v1.406c0 .246.176.422.422.422h2.953Zm-1.652-7.066L7.9 1.027C7.373.5 6.46.887 6.46 1.625V5H1.678a.833.833 0 0 0-.844.844v3.375c0 .492.352.844.844.844h4.781v3.374c0 .774.914 1.126 1.441.598l5.907-5.906c.316-.316.316-.844 0-1.195Z" fill="#E63A28"></path>
  </symbol><symbol  viewBox='0 0 26 21' id='glass'>
    <path fill-rule="evenodd" clip-rule="evenodd" d="M12.19 0c6.379 0 11.567 4.257 11.567 9.492 0 1.854-.652 3.586-1.776 5.05l3.54 2.905c1.002.822 1.002 2.159 0 2.983-1.005.822-2.633.822-3.636 0l-3.539-2.905c-1.785.923-3.894 1.458-6.155 1.458-6.378 0-11.566-4.257-11.566-9.49C.625 4.256 5.813 0 12.191 0Zm0 16.874c4.961 0 8.997-3.312 8.997-7.382 0-4.072-4.036-7.383-8.996-7.383-4.96 0-8.995 3.311-8.995 7.383 0 4.07 4.034 7.382 8.995 7.382Z" fill="#E63A28"></path>
  </symbol><symbol  viewBox='0 0 54 56' id='logo'>
    <path fill-rule="evenodd" clip-rule="evenodd" d="M52.361 20.151c-.716 3.232-1.424 6.463-2.142 9.695-1.452-1.891-2.772-3.888-4.164-5.823.614-2.524 1.167-5.065 1.729-7.605.422-1.954.651-4.047.013-5.981-1.137-3.207-4.775-5.176-7.991-4.372-2.788.612-5.058 2.477-7.481 3.902-6.313 3.76-13.06 6.644-19.65 9.825.555-.981 1.492-1.628 2.267-2.41 4.796-4.517 10.11-8.399 15.329-12.377C33.41 2.633 37.05.573 41.048.543 44.93.346 48.76 2.33 51.128 5.455c1.653 2.225 2.386 5.075 2.291 7.857.043 2.327-.57 4.587-1.058 6.84ZM5.778 45.175c1.116 3.33 4.948 5.317 8.231 4.395 2.62-.603 4.748-2.375 7.034-3.715C27.428 41.983 34.31 39.1 41 35.858c-3.538 3.972-7.785 7.19-11.936 10.446-3.881 2.835-7.483 6.25-12.01 7.984-3.291 1.184-7.118 1.27-10.251-.44C3.473 52.232.912 48.94.368 45.166c-.429-2.39-.201-4.846.328-7.199.888-4.053 1.796-8.097 2.675-12.15a185.76 185.76 0 0 1 4.164 5.872c-.624 2.506-1.15 5.037-1.717 7.56-.435 1.933-.712 4.011-.04 5.926Z" fill="#2B5AE1"></path><path fill-rule="evenodd" clip-rule="evenodd" d="M52.102 47.908c-1.531 3.347-4.544 6.029-8.142 6.717-4.09.956-8.167-.495-12.143-1.349-2.363-.554-4.733-1.086-7.094-1.654 1.779-1.516 3.75-2.776 5.569-4.24 2.738.607 5.455 1.313 8.2 1.9 2.172.429 4.618.465 6.513-.86 2.2-1.59 3.476-4.531 2.909-7.256-.32-1.81-1.176-3.45-2.127-4.988-4.535-7.262-7.785-15.245-11.252-23.066 3.832 3.7 7.027 8.014 10.199 12.3 2.529 3.681 5.563 7.078 7.329 11.242 1.49 3.531 1.782 7.757.04 11.254ZM14.744 5.964c-2.158-.41-4.598-.476-6.468.878C6.418 8.185 5.193 10.5 5.3 12.85c-.018 2.566 1.328 4.849 2.638 6.94 4.134 6.678 7.064 14.008 10.336 21.14.185.438.302.905.414 1.372-3.865-4.248-7.5-8.712-10.815-13.421-2.57-3.647-5.576-7.107-7.067-11.404-1.172-3.385-1.133-7.303.561-10.497 1.334-2.697 3.622-4.93 6.44-5.914 2.836-1.04 5.949-.87 8.85-.208 3.965.924 7.935 1.837 11.898 2.771-1.8 1.51-3.741 2.834-5.605 4.256-2.732-.657-5.463-1.326-8.207-1.921Z" fill="#E63A28"></path>
  </symbol><symbol  viewBox='0 0 28 22' id='menu'>
    <path d="M0 0h28v6H0V0Zm0 8h28v6H0V8Zm0 8h28v6H0v-6Z" fill="#000"></path>
  </symbol></svg>